<?xml version="1.0" encoding="UTF-8"?>
<svg version="1.1" xmlns="http://www.w3.org/2000/svg" width="2400" height="2398">
<path d="M0 0 C2.40485899 0.22826033 4.81066212 0.4398263 7.21746826 0.64648438 C95.28814223 8.23980309 182.47566518 26.92727436 385.38250732 104.76953125 C389.09567872 106.58024157 392.83689302 108.32669357 396.58099365 110.07226562 C407.48163302 115.16967954 418.01293531 120.82900061 428.53192139 126.66699219 C431.37647834 128.23015096 434.23668538 129.75960694 437.10467529 131.27929688 C451.8400118 139.10494701 466.08962529 147.57950738 480.28436279 156.33251953 C482.87454503 157.92265834 485.4737748 159.49386597 488.08514404 161.04882812 C508.0978908 172.99725455 527.50488047 186.18627939 546.40789795 199.81494141 C548.51731488 201.33323776 550.63490475 202.83969928 552.75311279 204.34570312 C562.80219568 211.51573675 572.60437541 218.96231302 582.30145264 226.60058594 C584.1997828 228.0935739 586.10380772 229.57881064 588.01092529 231.06054688 C604.87096374 244.1826566 621.32518128 257.86233188 637.14764404 272.22070312 C639.15947797 274.03772919 641.19299838 275.8240533 643.24139404 277.59960938 C659.33621206 291.6424984 674.78447004 306.46574377 689.86077881 321.58862305 C691.95589496 323.68918042 694.05641714 325.78422812 696.15740967 327.87890625 C697.52036117 329.24251748 698.88300302 330.6064383 700.24530029 331.97070312 C700.85893936 332.58231796 701.47257843 333.1939328 702.10481262 333.82408142 C705.83200234 337.5712352 709.36031642 341.4438687 712.81700134 345.44163513 C714.57048509 347.45946854 716.3822138 349.40966292 718.23358154 351.33789062 C719.21367187 352.365354 719.21367187 352.365354 720.21356201 353.41357422 C720.88274658 354.11434082 721.55193115 354.81510742 722.24139404 355.53710938 C727.50847256 361.08869934 732.53498538 366.69344485 737.29608154 372.68554688 C739.55911824 375.46096924 741.94031555 378.09079328 744.36639404 380.72460938 C748.78387102 385.5350521 752.93578992 390.50431325 757.03387451 395.58740234 C758.54861008 397.44849005 760.0831119 399.29218144 761.62030029 401.13476562 C769.02771894 410.02737583 776.11416826 419.08922018 782.9977417 428.39160156 C785.06263042 431.15706438 787.18426972 433.87584093 789.30389404 436.59960938 C804.84838311 456.69583411 819.45079894 477.68816734 833.04656982 499.14550781 C834.40409433 501.28399813 835.77323939 503.41472686 837.14373779 505.54492188 C854.62564823 532.83187805 870.72794023 561.02929158 885.57342529 589.83007812 C887.31229702 593.20350119 889.07454892 596.5611189 890.87811279 599.90039062 C898.3268274 613.71727797 904.91549126 627.92051303 911.36639404 642.22460938 C911.65232422 642.85834473 911.93825439 643.49208008 912.23284912 644.14501953 C945.8764016 718.83502797 971.22539245 797.0688041 1005.10925293 999.40338135 C1005.35364256 1002.08470626 1005.60912599 1004.76475643 1005.86688232 1007.44482422 C1011.48979671 1067.15897375 1011.36107871 1129.87750095 1005.61962891 1189.57525635 C1005.35266579 1192.3682349 1005.09874284 1195.16220979 1004.84637451 1197.95654297 C996.64351394 1287.77953724 977.38183937 1376.27446504 878.85955811 1617.51904297 C877.32000391 1620.30866684 875.81907256 1623.11618175 874.32733154 1625.93164062 C866.50034317 1640.67350938 858.02340865 1654.92909306 849.26727295 1669.12939453 C847.65192653 1671.75967476 846.05456484 1674.39884157 844.47186279 1677.04882812 C832.0975444 1697.723365 818.33429958 1717.60292866 804.36639404 1737.22460938 C803.82708252 1737.98531738 803.287771 1738.74602539 802.7321167 1739.52978516 C795.09573209 1750.28670857 787.16634053 1760.77962843 779.00360107 1771.14208984 C777.47023039 1773.09253003 775.9458117 1775.04953502 774.42498779 1777.00976562 C769.09867638 1783.86121994 763.61526898 1790.54748976 757.97967529 1797.14648438 C755.58757135 1799.95168257 753.25183553 1802.79924095 750.92889404 1805.66210938 C742.65374823 1815.80726145 734.08053297 1825.64374612 725.15545654 1835.22070312 C722.75503779 1837.79721751 720.39728274 1840.40847674 718.05389404 1843.03710938 C707.06178997 1855.27861351 695.65243648 1867.10481408 684.00238037 1878.71899414 C681.901823 1880.81411029 679.8067753 1882.91463247 677.71209717 1885.015625 C676.34848594 1886.3785765 674.98456512 1887.74121835 673.62030029 1889.10351562 C673.00868546 1889.71715469 672.39707062 1890.33079376 671.766922 1890.96302795 C668.01976821 1894.69021767 664.14713471 1898.21853176 660.14936829 1901.67521667 C658.13153488 1903.42870042 656.1813405 1905.24042914 654.25311279 1907.09179688 C653.22564941 1908.07188721 653.22564941 1908.07188721 652.1774292 1909.07177734 C651.4766626 1909.74096191 650.775896 1910.41014648 650.05389404 1911.09960938 C644.50230408 1916.36668789 638.89755856 1921.39320071 632.90545654 1926.15429688 C630.13003418 1928.41733357 627.50021014 1930.79853089 624.86639404 1933.22460938 C620.05595132 1937.64208635 615.08669016 1941.79400525 610.00360107 1945.89208984 C608.14251336 1947.40682541 606.29882198 1948.94132723 604.45623779 1950.47851562 C595.56362759 1957.88593427 586.50178324 1964.97238359 577.19940186 1971.85595703 C574.43393904 1973.92084576 571.71516249 1976.04248506 568.99139404 1978.16210938 C555.80431263 1988.33360357 542.16374065 1997.90266302 528.36639404 2007.22460938 C527.57926025 2007.75666992 526.79212646 2008.28873047 525.98114014 2008.83691406 C490.43527912 2032.81083005 453.74564776 2054.84857772 415.62811279 2074.49804688 C412.44614552 2076.13891801 409.27947735 2077.8003794 406.13592529 2079.51367188 C394.04423149 2086.09577203 381.56899765 2091.83671969 369.04705811 2097.54394531 C365.50962414 2099.15665036 361.98123993 2100.78864352 358.45233154 2102.41992188 C280.17955135 2138.33754074 196.63088358 2163.61643442 -66.27813721 2197.42773438 C-68.20730104 2197.43471326 -70.13646465 2197.44175423 -72.06562805 2197.44885254 C-78.19245695 2197.46812005 -84.31925006 2197.47302766 -90.44610596 2197.47460938 C-91.48840614 2197.47519852 -92.53070633 2197.47578766 -93.60459137 2197.47639465 C-123.57465409 2197.4883593 -153.40205345 2197.32502697 -183.2600708 2194.44921875 C-185.66879676 2194.22127924 -188.07845457 2194.00962137 -190.48907471 2193.80273438 C-264.05088438 2187.4607058 -336.88375956 2173.23980773 -407.63360596 2152.22460938 C-408.43977356 2151.98546814 -409.24594116 2151.7463269 -410.07653809 2151.49993896 C-448.71354528 2140.00058437 -486.60111748 2126.14127642 -523.63360596 2110.22460938 C-525.4154126 2109.45987305 -525.4154126 2109.45987305 -527.23321533 2108.6796875 C-544.94464174 2101.0322496 -562.32126351 2092.72697317 -579.63360596 2084.22460938 C-580.42235107 2083.83853516 -581.21109619 2083.45246094 -582.02374268 2083.0546875 C-585.81698981 2081.19477277 -589.59401686 2079.30567706 -593.35723877 2077.38574219 C-595.07918159 2076.50741099 -596.80278134 2075.63232714 -598.52716064 2074.75878906 C-613.9052801 2066.95559304 -628.95563765 2058.75680904 -643.7678833 2049.92724609 C-646.58604822 2048.25286527 -649.41436248 2046.59721747 -652.24688721 2044.94726562 C-671.48094819 2033.72075063 -690.19586371 2021.71163705 -708.63360596 2009.22460938 C-709.6414917 2008.54301758 -709.6414917 2008.54301758 -710.66973877 2007.84765625 C-727.96343291 1996.12740523 -744.72945375 1983.74419796 -761.29522705 1971.01953125 C-763.34892299 1969.44312986 -765.4061478 1967.87155306 -767.46563721 1966.30273438 C-777.14495481 1958.91819669 -786.52133968 1951.1991789 -795.79327393 1943.31298828 C-799.24481042 1940.38189719 -802.73569895 1937.50753427 -806.25860596 1934.66210938 C-811.02311403 1930.78531168 -815.57004486 1926.70989406 -820.09063721 1922.55273438 C-822.2042765 1920.61766676 -824.34020444 1918.72252641 -826.50860596 1916.84960938 C-831.73091908 1912.30387123 -836.79199777 1907.58338905 -841.86065674 1902.86816406 C-843.55817039 1901.29453945 -845.26478383 1899.73141799 -846.97344971 1898.16992188 C-856.62657424 1889.29162112 -865.91543757 1880.05093242 -875.19610596 1870.78710938 C-875.85657928 1870.12922424 -876.51705261 1869.47133911 -877.19754028 1868.79351807 C-890.26066529 1855.77076332 -890.26066529 1855.77076332 -895.26812744 1849.80444336 C-896.80959211 1848.02099657 -898.45099154 1846.37478139 -900.13360596 1844.72460938 C-903.14774178 1841.75725615 -905.93277928 1838.65115645 -908.69219971 1835.44726562 C-910.92164657 1832.89484055 -913.21361978 1830.40573424 -915.50860596 1827.91210938 C-919.5543934 1823.47695292 -923.38044541 1818.91502909 -927.14923096 1814.24414062 C-930.09974771 1810.65805658 -933.14194391 1807.15987809 -936.19610596 1803.66210938 C-941.16199036 1797.96274956 -945.97686617 1792.18090445 -950.63360596 1786.22460938 C-951.49254231 1785.13572155 -952.35194906 1784.04720468 -953.21173096 1782.95898438 C-1001.24653094 1722.09849386 -1043.24283026 1656.85605451 -1077.60235596 1587.30664062 C-1079.0538867 1584.37261891 -1080.53900046 1581.45791558 -1082.03985596 1578.54882812 C-1106.92041372 1530.05274658 -1126.04613945 1478.34186147 -1142.84625244 1426.56518555 C-1144.28656347 1422.14118906 -1145.77736919 1417.79809971 -1147.57501221 1413.50585938 C-1150.39436842 1406.58903879 -1152.35440789 1399.40270901 -1154.38360596 1392.22460938 C-1154.70841949 1391.07980103 -1154.70841949 1391.07980103 -1155.03979492 1389.91186523 C-1174.62156871 1320.65143391 -1184.01828003 1249.0141365 -1188.38360596 1177.28710938 C-1188.44277191 1176.31513611 -1188.50193787 1175.34316284 -1188.56289673 1174.34173584 C-1188.96331496 1167.63799882 -1189.31203662 1160.93255954 -1189.63360596 1154.22460938 C-1189.68232849 1153.24131653 -1189.73105103 1152.25802368 -1189.78125 1151.24493408 C-1190.7279769 1131.5919858 -1190.7894684 1111.95457713 -1190.76397705 1092.28369141 C-1190.75829795 1087.87295416 -1190.76166891 1083.46227745 -1190.7674036 1079.05154228 C-1190.79873654 1050.86562511 -1190.73321865 1022.67452004 -1187.94610596 994.59960938 C-1187.86123932 993.71816254 -1187.77637268 992.8367157 -1187.68893433 991.92855835 C-1179.42236575 906.41979279 -1161.3890203 822.30424852 -1078.63360596 609.22460938 C-1078.24221436 608.42522949 -1077.85082275 607.62584961 -1077.4475708 606.80224609 C-1075.21719748 602.25510048 -1072.93998606 597.73363284 -1070.63360596 593.22460938 C-1070.17695557 592.32919434 -1069.72030518 591.4337793 -1069.24981689 590.51123047 C-1049.73866123 552.34183182 -1027.62838398 515.73232127 -1003.63360596 480.22460938 C-1003.14505127 479.50144531 -1002.65649658 478.77828125 -1002.15313721 478.03320312 C-990.51221827 460.84898945 -978.19535835 444.2006792 -965.55743408 427.73925781 C-963.7444645 425.3695133 -961.94423067 422.99079405 -960.14923096 420.60742188 C-954.14110232 412.64656271 -947.94639518 404.93644914 -941.39532471 397.41601562 C-938.93372357 394.58817009 -936.55352152 391.7027472 -934.19610596 388.78710938 C-926.05325325 378.77757383 -917.53560708 369.09785869 -908.74078369 359.65795898 C-906.06660097 356.786849 -903.44175607 353.88697172 -900.88360596 350.91210938 C-898.0194306 347.59606169 -894.97270068 344.51752842 -891.82110596 341.47460938 C-889.94677997 339.54673121 -888.19821901 337.57828767 -886.44586182 335.54125977 C-882.92600632 331.50794842 -879.24044715 327.68619976 -875.45001221 323.90820312 C-874.79081284 323.24804703 -874.13161346 322.58789093 -873.45243835 321.9077301 C-872.06963761 320.52425432 -870.6855952 319.14201854 -869.300354 317.76098633 C-867.20130253 315.66729268 -865.10764656 313.56831063 -863.01446533 311.46875 C-861.6599681 310.11491367 -860.30516064 308.76138762 -858.95001221 307.40820312 C-858.33517471 306.7913414 -857.72033722 306.17447968 -857.08686829 305.53892517 C-853.34191037 301.8137259 -849.48139162 298.28010948 -845.46818542 294.84510803 C-843.61175737 293.20531034 -841.86730582 291.49295032 -840.13360596 289.72460938 C-837.18760381 286.73226562 -834.10377588 283.97136765 -830.92266846 281.23242188 C-828.69826348 279.28132263 -826.52262998 277.2835203 -824.3538208 275.27099609 C-819.24794055 270.5359794 -814.0303333 266.02944747 -808.60235596 261.66210938 C-805.11078664 258.7953472 -801.71837123 255.82682704 -798.32110596 252.84960938 C-791.85967094 247.205974 -785.20386993 241.87622196 -778.42364502 236.62353516 C-775.90501204 234.65520906 -773.41658418 232.65026168 -770.92730713 230.64501953 C-758.16898826 220.36888282 -744.94988232 210.76006996 -731.63360596 201.22460938 C-730.55538574 200.45213867 -730.55538574 200.45213867 -729.4553833 199.6640625 C-718.66729234 191.95083805 -707.71896048 184.50359134 -696.63360596 177.22460938 C-695.93799561 176.76731445 -695.24238525 176.31001953 -694.5256958 175.83886719 C-656.49627124 150.89300144 -616.90764507 128.45328884 -576.07501221 108.42236328 C-574.2534668 107.52871311 -572.43338906 106.63207021 -570.61407471 105.73388672 C-491.47002577 66.72618972 -407.1560641 38.41868057 -189.12939453 0.44464111 C-186.67684263 0.22842117 -184.225815 -0.00082054 -181.77471924 -0.23291016 C-122.12652023 -5.77827267 -59.62840052 -5.76497693 0 0 Z " fill="#000000" transform="translate(1291.6336059570313,101.775390625)"/>
<path d="M0 0 C0.77908722 0.08268127 1.55817444 0.16536255 2.36087036 0.25054932 C18.27532916 1.9876902 33.9172693 4.83426543 49.5 8.5 C50.14652527 8.65189789 50.79305054 8.80379578 51.45916748 8.96029663 C62.37457836 11.53702139 73.02986237 14.51727593 83.625 18.1875 C84.6577002 18.53651367 85.69040039 18.88552734 86.75439453 19.24511719 C103.54323543 24.93045657 119.67989136 31.45005314 135.625 39.1875 C136.38200195 39.55085449 137.13900391 39.91420898 137.91894531 40.28857422 C181.79835786 61.39960435 219.91641917 90.58660631 254.375 124.75 C255.25027344 125.61222168 256.12554688 126.47444336 257.02734375 127.36279297 C262.24796534 132.57650375 267.04712474 137.97581281 271.65966797 143.73413086 C273.21179741 145.67168971 274.78513581 147.56852379 276.41796875 149.4375 C288.82394845 163.68515043 299.71187717 179.11996426 309.625 195.1875 C310.2425415 196.18716797 310.2425415 196.18716797 310.87255859 197.20703125 C318.4222688 209.52576632 325.11047742 222.29731208 331.625 235.1875 C332.00398438 235.93467285 332.38296875 236.6818457 332.7734375 237.45166016 C342.18687949 256.18564833 349.4604905 276.16581458 355.625 296.1875 C355.93896729 297.19611084 355.93896729 297.19611084 356.25927734 298.22509766 C383.20763809 386.03271356 376.92131394 481.05644754 331.625 598.1875 C331.22667969 599.02265137 330.82835937 599.85780273 330.41796875 600.71826172 C318.41457195 625.68246912 303.74818788 649.39150078 286.625 671.1875 C285.74660905 672.33142753 284.86905443 673.47599758 283.9921875 674.62109375 C278.94886921 681.16865269 273.74848954 687.44472329 268.109375 693.4921875 C266.21087224 695.55188389 264.38270458 697.63495051 262.5625 699.76171875 C258.07635002 704.9049677 253.27106255 709.72749109 248.44726562 714.55053711 C246.88639673 716.11358734 245.33372112 717.68447365 243.78125 719.25585938 C237.38599113 725.68650853 230.72739836 731.53295951 223.625 737.1875 C222.52314943 738.12225311 221.42680692 739.0636013 220.33984375 740.015625 C182.58438138 772.93881301 136.5146863 797.01883251 89.40209961 813.21850586 C86.5996392 814.19634897 83.81782391 815.22123658 81.03515625 816.25390625 C75.93444188 818.11391048 70.79995956 819.69861964 65.5625 821.125 C64.63928955 821.37733398 63.7160791 821.62966797 62.76489258 821.88964844 C52.09781851 824.7167024 41.27405945 826.67971381 30.42358398 828.65429688 C27.86686642 829.14141815 25.33373725 829.68503624 22.796875 830.265625 C12.26878782 832.65702679 1.36489128 833.36770445 -9.375 834.25 C-11.00779907 834.3895813 -11.00779907 834.3895813 -12.67358398 834.53198242 C-18.98708433 835.02096435 -25.20674057 835.21215753 -31.53125 835.078125 C-47.84233127 834.81300708 -58.97543226 835.81536143 -71.39794922 847.41650391 C-74.65835339 850.33709811 -78.26266881 852.72745255 -81.875 855.1875 C-83.28326454 856.17421435 -84.68951413 857.16381065 -86.09375 858.15625 C-86.795 858.65125 -87.49625 859.14625 -88.21875 859.65625 C-91.95479996 862.30938693 -95.66449005 864.99881723 -99.375 867.6875 C-105.87558483 872.39790657 -112.4136388 877.05047608 -118.98046875 881.66796875 C-124.1406672 885.30204566 -129.2642894 888.98421401 -134.375 892.6875 C-140.87558483 897.39790657 -147.4136388 902.05047608 -153.98046875 906.66796875 C-159.1406672 910.30204566 -164.2642894 913.98421401 -169.375 917.6875 C-175.87558483 922.39790657 -182.4136388 927.05047608 -188.98046875 931.66796875 C-194.1406672 935.30204566 -199.2642894 938.98421401 -204.375 942.6875 C-210.87558483 947.39790657 -217.4136388 952.05047608 -223.98046875 956.66796875 C-229.1406672 960.30204566 -234.2642894 963.98421401 -239.375 967.6875 C-245.87558483 972.39790657 -252.4136388 977.05047608 -258.98046875 981.66796875 C-264.1406672 985.30204566 -269.2642894 988.98421401 -274.375 992.6875 C-280.87558483 997.39790657 -287.4136388 1002.05047608 -293.98046875 1006.66796875 C-299.1406672 1010.30204566 -304.2642894 1013.98421401 -309.375 1017.6875 C-315.1806656 1021.89435924 -321.01021719 1026.06345272 -326.875 1030.1875 C-336.51430795 1036.96840087 -346.060175 1043.87697884 -355.59716797 1050.80078125 C-364.97390262 1057.6081788 -374.40447032 1064.32693219 -383.90917969 1070.95458984 C-391.71087055 1076.40307794 -399.42637896 1081.96586414 -407.12646484 1087.55664062 C-411.01667359 1090.37820354 -414.91521824 1093.18821931 -418.8125 1096 C-420.91103715 1097.51410062 -423.00628625 1099.02718669 -425.07543945 1100.58129883 C-427.375 1102.1875 -427.375 1102.1875 -430.30541992 1103.78393555 C-434.89799508 1106.49321646 -437.85020341 1108.37210205 -439.37231445 1113.63745117 C-439.70378821 1117.15635581 -439.85944232 1120.56069731 -439.82943726 1124.08926392 C-439.80623579 1127.22037531 -439.90800836 1130.34377181 -440.00447083 1133.47312927 C-440.05363763 1135.0712492 -440.09739642 1136.66954452 -440.13578796 1138.26795959 C-441.84497898 1204.20523176 -471.95304643 1272.75247297 -516.34375 1320.97265625 C-518.15341988 1322.94589244 -519.89339891 1324.95857813 -521.625 1327 C-529.26577393 1335.73736648 -537.56804161 1343.84839039 -546.6796875 1351.0390625 C-548.44902683 1352.44940545 -550.18556755 1353.90211251 -551.8828125 1355.3984375 C-566.68629739 1368.38925077 -583.93635817 1379.0900745 -601.375 1388.1875 C-602.00744629 1388.52152832 -602.63989258 1388.85555664 -603.29150391 1389.19970703 C-635.76537471 1406.26335372 -671.07306452 1417.20739957 -707.375 1422.1875 C-708.15101563 1422.29481445 -708.92703125 1422.40212891 -709.7265625 1422.51269531 C-787.84547116 1432.8000934 -868.96749865 1408.45929967 -931.11499023 1360.87231445 C-936.95810287 1356.31632387 -942.49543559 1351.49502257 -947.92578125 1346.453125 C-950.05887867 1344.47992483 -952.22858987 1342.57455297 -954.4375 1340.6875 C-961.99697468 1334.10394111 -968.95250474 1326.87710264 -975.375 1319.1875 C-975.82182129 1318.65979004 -976.26864258 1318.13208008 -976.72900391 1317.58837891 C-989.44966882 1302.52194272 -1000.7187971 1286.38606923 -1010.375 1269.1875 C-1010.79458984 1268.4440332 -1011.21417969 1267.70056641 -1011.64648438 1266.93457031 C-1025.9827319 1241.26536216 -1037.12708925 1213.19464892 -1042.375 1184.1875 C-1043.02114258 1184.09339844 -1043.66728516 1183.99929688 -1044.33300781 1183.90234375 C-1048.42898868 1182.93982112 -1052.16673353 1181.35981835 -1056.046875 1179.75 C-1056.90454971 1179.39827728 -1057.76222443 1179.04655457 -1058.64588928 1178.68417358 C-1061.47407818 1177.52298493 -1064.29954004 1176.35531142 -1067.125 1175.1875 C-1069.1114339 1174.37026907 -1071.09800821 1173.55337935 -1073.0847168 1172.73681641 C-1087.83072193 1166.67083146 -1102.55943762 1160.56270881 -1117.28417969 1154.4453125 C-1128.80169711 1149.66132766 -1140.33361386 1144.91358632 -1151.875 1140.1875 C-1165.07556947 1134.78127251 -1178.2627348 1129.34381518 -1191.4375 1123.875 C-1206.1204379 1117.78059726 -1220.80686182 1111.69477697 -1235.5 1105.625 C-1236.46659546 1105.22568268 -1237.43319092 1104.82636536 -1238.42907715 1104.41494751 C-1252.46975748 1098.61560621 -1266.52062781 1092.84151225 -1280.57818604 1087.08322144 C-1293.88735838 1081.63054768 -1307.17652053 1076.13061889 -1320.4593811 1070.61419678 C-1333.72352374 1065.10627845 -1347.00351232 1059.6382856 -1360.29501343 1054.19674683 C-1369.35749824 1050.4860611 -1378.41438609 1046.76271621 -1387.45703125 1043.00390625 C-1388.72029488 1042.47929054 -1388.72029488 1042.47929054 -1390.00907898 1041.94407654 C-1394.25780392 1040.17890346 -1398.50415404 1038.40833619 -1402.74682617 1036.62866211 C-1410.84851026 1033.24023063 -1418.96694356 1029.93071329 -1427.17878723 1026.81703186 C-1431.08066939 1025.33681177 -1434.9728672 1023.83191244 -1438.86532593 1022.32711792 C-1440.72858286 1021.61598268 -1442.59693039 1020.91802784 -1444.47036743 1020.23416138 C-1458.80829754 1014.99755786 -1458.80829754 1014.99755786 -1462.24853516 1011.02294922 C-1463.36456966 1008.40575817 -1463.87010679 1005.98761678 -1464.375 1003.1875 C-1464.92397979 1001.37052153 -1465.474421 999.55387354 -1466.0476532 997.74440002 C-1467.14275199 994.24553945 -1468.12773043 990.71524844 -1469.125 987.1875 C-1469.34154236 986.42429443 -1469.55808472 985.66108887 -1469.78118896 984.87475586 C-1489.36296276 915.61432454 -1498.75967407 843.97702712 -1503.125 772.25 C-1503.18416595 771.27802673 -1503.24333191 770.30605347 -1503.30429077 769.30462646 C-1503.70470911 762.60088763 -1504.0531314 755.89543636 -1504.375 749.1875 C-1504.4480838 747.71754578 -1504.4480838 747.71754578 -1504.52264404 746.21789551 C-1505.48206257 726.37927451 -1505.53080407 706.55412673 -1505.50537109 686.69726562 C-1505.49964828 682.19637179 -1505.50307026 677.69553679 -1505.50882339 673.19464493 C-1505.5471869 637.59407487 -1505.5471869 637.59407487 -1504.375 620.1875 C-1500.01653554 620.87406103 -1496.11588977 622.36988579 -1492.05859375 624.0390625 C-1491.34316406 624.32943893 -1490.62773438 624.61981537 -1489.890625 624.91899109 C-1487.52938324 625.87898115 -1485.17091341 626.84558448 -1482.8125 627.8125 C-1481.14144896 628.49395822 -1479.47030481 629.17518818 -1477.79907227 629.85620117 C-1465.30026551 634.95720274 -1452.83736595 640.14346393 -1440.38330078 645.35253906 C-1428.50908948 650.31598351 -1416.60311238 655.19938522 -1404.6875 660.0625 C-1390.39863577 665.8946419 -1376.12625459 671.76404276 -1361.875 677.6875 C-1346.91428066 683.90516631 -1331.93023233 690.06347466 -1316.93115234 696.18798828 C-1302.73146083 701.98680205 -1288.54821305 707.82428051 -1274.375 713.6875 C-1259.38829672 719.88698721 -1244.389415 726.05543119 -1229.375 732.1875 C-1213.28340027 738.75968605 -1197.2101249 745.37505584 -1181.14761353 752.01800537 C-1167.96143266 757.47128655 -1154.76722811 762.90428952 -1141.5625 768.3125 C-1127.56774124 774.04441673 -1113.59333147 779.82395048 -1099.62753296 785.6260376 C-1085.30398491 791.57511941 -1070.95487898 797.45993415 -1056.59561157 803.32220459 C-1043.33795288 808.73572307 -1030.0987378 814.19166597 -1016.875 819.6875 C-1000.86015474 826.3425459 -984.82599442 832.94905493 -968.76147461 839.48339844 C-960.45498422 842.8646473 -952.15872597 846.26408397 -943.90155029 849.76438904 C-940.27914847 851.29936906 -936.65181423 852.82249764 -933.02423096 854.34518433 C-931.31367546 855.0675117 -929.60572221 855.79603595 -927.90057373 856.53103638 C-925.55582018 857.54141687 -923.20313378 858.53056213 -920.84765625 859.515625 C-919.81646919 859.97028389 -919.81646919 859.97028389 -918.76445007 860.43412781 C-915.66117093 861.70954798 -913.85944169 862.31472541 -910.56567383 861.44970703 C-907.99474872 859.96840949 -905.48908202 858.42869846 -903 856.8125 C-870.44304188 836.40101891 -834.03915631 823.25117183 -796.25976562 816.69140625 C-794.43552616 816.37275101 -792.61347157 816.0410744 -790.79492188 815.69140625 C-771.2283581 811.9423101 -751.2044277 812.9033899 -731.375 813.1875 C-731.09229248 812.43331787 -730.80958496 811.67913574 -730.51831055 810.90209961 C-729.5335241 808.56388895 -728.56086475 806.7888412 -727.08203125 804.75390625 C-726.39608887 803.79846924 -726.39608887 803.79846924 -725.69628906 802.82373047 C-725.19838867 802.13939941 -724.70048828 801.45506836 -724.1875 800.75 C-719.40706734 794.08163227 -714.73012347 787.35310579 -710.125 780.5625 C-704.92352195 772.90304107 -699.67346555 765.28018633 -694.375 757.6875 C-687.79865648 748.26084779 -681.30402095 738.78116195 -674.83984375 729.27734375 C-670.47159201 722.85513788 -666.06947286 716.45646454 -661.66357422 710.06005859 C-660.37926266 708.1936945 -659.09744649 706.32564195 -657.81640625 704.45703125 C-652.45209343 696.63575057 -647.04868889 688.842733 -641.625 681.0625 C-634.35801847 670.63445924 -627.18873301 660.14213767 -620.04003906 649.6328125 C-613.29836653 639.73184591 -606.47408535 629.88937752 -599.625 620.0625 C-592.96778396 610.50926054 -586.38838467 600.9052995 -579.83984375 591.27734375 C-575.47159201 584.85513788 -571.06947286 578.45646454 -566.66357422 572.06005859 C-565.37926266 570.1936945 -564.09744649 568.32564195 -562.81640625 566.45703125 C-557.45209343 558.63575057 -552.04868889 550.842733 -546.625 543.0625 C-539.35801847 532.63445924 -532.18873301 522.14213767 -525.04003906 511.6328125 C-518.29836653 501.73184591 -511.47408535 491.88937752 -504.625 482.0625 C-497.97418433 472.5184452 -491.40062345 462.92406781 -484.859375 453.3046875 C-481.27709275 448.03766856 -477.67042573 442.78767928 -474.04956055 437.54711914 C-473.24474735 436.3800994 -472.44707987 435.20811853 -471.65673828 434.03125 C-470.73397053 432.70387056 -469.76212043 431.41013505 -468.76123047 430.140625 C-464.17782528 424.04571463 -463.55094154 419.3234617 -463.625 411.8125 C-463.58722993 409.57545165 -463.54542915 407.33846842 -463.5 405.1015625 C-463.48324219 403.9559082 -463.46648437 402.81025391 -463.44921875 401.62988281 C-462.57211148 360.94826281 -454.20623642 320.68751144 -441.375 282.1875 C-441.07013672 281.26630371 -440.76527344 280.34510742 -440.45117188 279.39599609 C-423.59157727 229.11762622 -395.91029582 183.23773454 -361.375 143.1875 C-360.76011719 142.47078125 -360.14523437 141.7540625 -359.51171875 141.015625 C-347.95222525 127.66289265 -335.88267331 114.59665978 -322.375 103.1875 C-320.89 101.88619141 -320.89 101.88619141 -319.375 100.55859375 C-255.73338637 44.90577741 -176.16157679 10.27251993 -92.375 0.1875 C-91.10293701 0.02652832 -91.10293701 0.02652832 -89.80517578 -0.13769531 C-60.28536832 -3.74115951 -29.52183711 -3.14212234 0 0 Z " fill="#FEFEFE" transform="translate(1606.375,506.8125)"/>
<path d="M0 0 C0.95171082 -0.00012085 1.90342163 -0.0002417 2.88397217 -0.00036621 C16.46714229 0.024197 29.528005 0.60635425 42.78515625 3.828125 C45.0050241 4.3611979 47.22774176 4.81547776 49.46875 5.25 C79.14262915 11.23510512 107.77899375 26.29258382 131.0625 45.375 C131.85599854 46.01622803 131.85599854 46.01622803 132.66552734 46.67041016 C146.11294156 57.55987039 157.74055733 69.48962183 168.0625 83.375 C168.4862793 83.93268066 168.91005859 84.49036133 169.34667969 85.06494141 C185.00854898 105.69262245 196.17204719 129.46085881 203.0625 154.375 C203.35398926 155.41140625 203.35398926 155.41140625 203.65136719 156.46875 C218.17936378 209.20563116 208.85831005 266.30533201 182.703125 313.828125 C176.27308915 325.12153624 168.5624042 335.55799353 160.0625 345.375 C159.35738281 346.19097656 158.65226562 347.00695313 157.92578125 347.84765625 C133.01800443 376.06454525 102.6049803 396.01457643 67.0625 408.375 C65.99370605 408.75180908 65.99370605 408.75180908 64.90332031 409.13623047 C56.97159417 411.89834197 48.9738293 413.94663618 40.75 415.625 C39.95005615 415.78838867 39.1501123 415.95177734 38.32592773 416.12011719 C26.19950038 418.45696133 14.10366877 418.58989035 1.79492188 418.61523438 C-1.03545903 418.62490758 -3.86510205 418.65599853 -6.6953125 418.6875 C-18.12992305 418.75418231 -28.76805863 417.79989542 -39.9375 415.375 C-40.91025879 415.18147949 -41.88301758 414.98795898 -42.88525391 414.78857422 C-56.44951028 412.04683539 -69.20120216 407.74581996 -81.9375 402.375 C-82.68483398 402.06191895 -83.43216797 401.74883789 -84.20214844 401.42626953 C-134.77479535 379.88099889 -172.57221135 337.26471075 -193.9375 287.375 C-202.74199046 265.48295477 -207.945065 241.98711098 -208.17578125 218.3359375 C-208.18562042 217.50075089 -208.19545959 216.66556427 -208.20559692 215.80506897 C-208.3722196 198.00132285 -208.44776657 180.722425 -203.9375 163.375 C-203.69080566 162.39869629 -203.44411133 161.42239258 -203.18994141 160.41650391 C-189.06048405 105.62474079 -155.25395833 58.52362228 -106.64990234 29.24707031 C-89.44644372 19.10740571 -71.32350669 11.29066141 -51.9375 6.375 C-51.2686377 6.20371582 -50.59977539 6.03243164 -49.91064453 5.85595703 C-47.75565298 5.30891691 -45.59759094 4.77652369 -43.4375 4.25 C-42.79804443 4.09120361 -42.15858887 3.93240723 -41.49975586 3.76879883 C-27.68262995 0.5111582 -14.12608208 -0.02754995 0 0 Z " fill="#FEFEFE" transform="translate(1560.9375,713.625)"/>
<path d="M0 0 C2.91980877 0.0107024 5.83899903 0.00005058 8.75878906 -0.01269531 C20.49700533 -0.02180292 31.92918099 0.65242173 43.55566406 2.26074219 C44.59529297 2.40141113 45.63492187 2.54208008 46.70605469 2.68701172 C96.01010859 9.79649578 143.4137434 31.25728689 181.55566406 63.26074219 C182.06097656 63.67727051 182.56628906 64.09379883 183.08691406 64.52294922 C195.50713478 74.77182828 207.42595764 85.77246934 217.36694336 98.48730469 C219.47371836 101.15690469 221.64001623 103.76517992 223.82128906 106.37402344 C228.37439534 111.9341653 232.46898556 117.70621582 236.43066406 123.69824219 C237.46537842 125.26239868 237.46537842 125.26239868 238.52099609 126.8581543 C258.09295043 156.79025722 271.01358721 189.35027788 278.55566406 224.26074219 C278.76884277 225.21932129 278.98202148 226.17790039 279.20166016 227.16552734 C282.65411919 243.40385768 282.92225909 259.54113767 282.93066406 276.07324219 C282.93365509 277.62179398 282.93365509 277.62179398 282.93670654 279.20162964 C282.9325624 298.16691999 282.20122706 317.19105001 278.05566406 335.76074219 C277.67643799 337.4881665 277.67643799 337.4881665 277.28955078 339.25048828 C272.62211723 359.51604285 265.84312027 379.64441833 256.55566406 398.26074219 C255.82210693 399.73631592 255.82210693 399.73631592 255.07373047 401.24169922 C243.32387258 424.70254329 243.32387258 424.70254329 235.55566406 435.26074219 C234.46137965 436.78640068 233.36768547 438.31248262 232.27441406 439.83886719 C226.09202321 448.40739997 219.81353514 456.57506977 212.55566406 464.26074219 C211.4884346 465.50670668 210.42586849 466.75668174 209.36816406 468.01074219 C200.62330165 478.01356625 191.02042691 487.08614021 180.55566406 495.26074219 C179.74871094 495.92332031 178.94175781 496.58589844 178.11035156 497.26855469 C129.88130617 536.81327037 67.79078713 557.74263064 5.80566406 557.63574219 C4.67626404 557.6355307 3.54686401 557.63531921 2.38323975 557.63510132 C-14.91759265 557.60276589 -31.47107515 556.83343761 -48.44433594 553.26074219 C-49.34458496 553.08414063 -50.24483398 552.90753906 -51.17236328 552.72558594 C-73.75609235 548.2461686 -95.82728782 540.45589173 -116.44433594 530.26074219 C-117.24274902 529.86773926 -118.04116211 529.47473633 -118.86376953 529.06982422 C-151.15680309 513.01069088 -182.12781328 489.9366147 -205.44433594 462.26074219 C-205.89921387 461.73416016 -206.3540918 461.20757813 -206.82275391 460.66503906 C-228.41251157 435.60764286 -244.88937554 406.95428569 -256.41455078 376.01855469 C-257.31390731 373.61003611 -258.24168993 371.21571172 -259.18261719 368.82324219 C-265.17685798 353.21151655 -268.57714722 336.54428064 -271.25683594 320.07324219 C-271.42445435 319.05351318 -271.42445435 319.05351318 -271.59545898 318.01318359 C-273.59973391 304.6118944 -273.64841887 291.02968091 -273.63183594 277.51074219 C-273.63156403 276.67313354 -273.63129211 275.8355249 -273.63101196 274.97253418 C-273.61412987 263.65856094 -273.48841223 252.45628219 -271.75195312 241.25146484 C-271.43322898 239.18886428 -271.1604983 237.12309893 -270.88964844 235.05371094 C-263.43115702 181.73061413 -237.64816758 130.06020362 -200.92089844 90.92480469 C-198.89835303 88.74913282 -196.9726533 86.53909745 -195.06933594 84.26074219 C-155.75706923 39.18639383 -93.58144886 10.82821342 -35.44433594 2.26074219 C-34.31447266 2.08269043 -33.18460938 1.90463867 -32.02050781 1.72119141 C-21.33394626 0.18578156 -10.7867817 -0.04688337 0 0 Z M-40.44433594 73.26074219 C-41.34152344 73.48036621 -42.23871094 73.69999023 -43.16308594 73.92626953 C-76.98279454 82.41122128 -108.69382125 98.4088691 -134.29199219 122.26074219 C-136.27302788 124.10155938 -138.30870848 125.83798862 -140.38183594 127.57324219 C-169.26360665 152.9243756 -188.10397477 190.07598911 -198.13183594 226.63574219 C-198.32245605 227.31733398 -198.51307617 227.99892578 -198.70947266 228.70117188 C-202.74942444 244.20470738 -203.96286299 259.67296531 -203.81933594 275.63574219 C-203.81568024 276.52983795 -203.81202454 277.42393372 -203.80825806 278.34512329 C-203.74512504 291.52550276 -203.1455311 304.32459892 -200.44433594 317.26074219 C-200.20457031 318.5459375 -199.96480469 319.83113281 -199.71777344 321.15527344 C-198.16436606 329.03326797 -196.01211422 336.65680522 -193.44433594 344.26074219 C-193.09677246 345.29859863 -193.09677246 345.29859863 -192.7421875 346.35742188 C-183.7925596 372.76861464 -170.15310648 396.53493232 -151.44433594 417.26074219 C-150.72246094 418.1025 -150.00058594 418.94425781 -149.25683594 419.81152344 C-137.86594886 432.94035836 -124.79679799 443.53953525 -110.44433594 453.26074219 C-109.76612793 453.72109863 -109.08791992 454.18145508 -108.38916016 454.65576172 C-84.99461916 470.3425082 -58.93044756 479.68770528 -31.44433594 485.26074219 C-30.4872876 485.45941895 -29.53023926 485.6580957 -28.54418945 485.86279297 C-19.04765218 487.58999341 -9.58937805 487.56467968 0.02905273 487.52148438 C2.85259675 487.51080109 5.67549913 487.52141356 8.49902344 487.53417969 C64.4589656 487.58107093 115.6424752 463.98132643 155.18066406 424.94824219 C161.9279437 418.15726034 167.97687349 411.03614393 173.55566406 403.26074219 C174.03600098 402.59236328 174.51633789 401.92398437 175.01123047 401.23535156 C207.46413158 355.51633771 221.31255442 298.73357393 212.10351562 243.25048828 C204.16960425 199.95339438 184.07017028 161.81256873 153.55566406 130.26074219 C152.81058594 129.46410156 152.06550781 128.66746094 151.29785156 127.84667969 C145.48928836 121.78091074 139.04158735 116.6619214 132.35107422 111.61621094 C131.20023807 110.7473719 130.05365176 109.8728575 128.91259766 108.99121094 C112.49522125 96.32766991 93.95952222 87.34632435 74.55566406 80.26074219 C72.72261719 79.55691406 72.72261719 79.55691406 70.85253906 78.83886719 C53.95997202 72.70300203 35.18425905 69.18792481 17.21191406 69.02246094 C16.33342804 69.01266708 15.45494202 69.00287323 14.54983521 68.99278259 C-4.11200862 68.82752706 -22.22851656 68.69643745 -40.44433594 73.26074219 Z " fill="#000000" transform="translate(1556.4443359375,644.7392578125)"/>
<path d="M0 0 C1.33603775 0.00031723 1.33603775 0.00031723 2.69906616 0.00064087 C18.86385655 0.03869519 34.41233912 1.29116097 50.3125 4.375 C51.21581055 4.54628418 52.11912109 4.71756836 53.04980469 4.89404297 C104.22969844 15.0268443 154.66563276 46.92999237 186.3125 88.375 C186.72532227 88.90609375 187.13814453 89.4371875 187.56347656 89.984375 C204.58241745 111.95405146 217.98731688 136.84008973 226.3125 163.375 C226.53099609 164.0462793 226.74949219 164.71755859 226.97460938 165.40917969 C230.80125619 177.19772068 233.35524533 189.14274574 235.3125 201.375 C235.49256592 202.4902002 235.49256592 202.4902002 235.67626953 203.62792969 C240.26140937 233.6534207 237.56073317 264.09015047 230.3125 293.375 C230.06628906 294.41011719 229.82007813 295.44523437 229.56640625 296.51171875 C221.63876438 327.87760614 206.54366588 357.23315293 186.3125 382.375 C185.88324219 382.91850098 185.45398437 383.46200195 185.01171875 384.02197266 C173.43452219 398.6233982 160.02575087 412.18304468 144.95849609 423.16894531 C143.33643535 424.35746209 141.74015964 425.58091332 140.14453125 426.8046875 C112.81167929 447.4800672 80.45348954 459.7299341 47.3125 467.375 C46.46042969 467.57867188 45.60835937 467.78234375 44.73046875 467.9921875 C42.26554094 468.53808293 39.80522587 468.9738717 37.3125 469.375 C36.2090625 469.560625 35.105625 469.74625 33.96875 469.9375 C-25.13270538 478.67917036 -87.78531889 462.37917654 -135.84375 427.2578125 C-140.93843734 423.46682463 -145.88121662 419.52622732 -150.6875 415.375 C-151.49058594 414.68277344 -152.29367187 413.99054688 -153.12109375 413.27734375 C-164.28334828 403.43670016 -174.44955203 393.07828723 -183.35351562 381.14892578 C-184.66676081 379.40257887 -186.00938617 377.68287698 -187.359375 375.96484375 C-207.05097639 350.49898659 -207.05097639 350.49898659 -209.6875 337.375 C-208.88759644 337.71156616 -208.88759644 337.71156616 -208.0715332 338.05493164 C-195.5496 343.31553244 -182.99191869 348.47702974 -170.39639282 353.55828857 C-156.82179374 359.03555597 -143.29420988 364.61037227 -129.8125 370.3125 C-64.70041678 397.81885916 -7.30623901 419.83086416 62.3125 392.375 C79.11834096 385.07816139 94.85554761 374.96769237 108.1875 362.37890625 C110.18755666 360.49282341 112.25648998 358.75025339 114.375 357 C119.33613159 352.66648144 123.28065711 347.55978426 127.3125 342.375 C128.0446875 341.45847656 128.776875 340.54195312 129.53125 339.59765625 C157.2993352 303.95868775 169.90405085 256.81637306 164.49023438 212.03344727 C157.98820636 165.81950084 133.86875585 123.38359263 96.59619141 95.07128906 C76.60598943 80.37547917 53.53893646 71.39641973 30.65951538 62.31948853 C21.86491656 58.81940439 13.15098707 55.13383333 4.4375 51.4375 C-8.65302253 45.89321694 -21.77776733 40.44043991 -34.9375 35.0625 C-49.90337376 28.94619924 -64.82164168 22.73112448 -79.6875 16.375 C-79.6875 15.715 -79.6875 15.055 -79.6875 14.375 C-72.2613639 11.53364845 -64.82937896 9.20584637 -57.125 7.25 C-56.16142578 6.99863281 -55.19785156 6.74726562 -54.20507812 6.48828125 C-36.1763887 1.84434372 -18.5741913 -0.0409787 0 0 Z " fill="#010101" transform="translate(859.6875,1389.625)"/>
</svg>
